<svg width="16" height="16" viewBox="0 0 16 16" fill="none" xmlns="http://www.w3.org/2000/svg">
<path fill-rule="evenodd" clip-rule="evenodd" d="M8.6665 3.33335C8.6665 2.96516 8.36803 2.66669 7.99984 2.66669C7.63165 2.66669 7.33317 2.96516 7.33317 3.33335V7.33335H3.33317C2.96498 7.33335 2.6665 7.63183 2.6665 8.00002C2.6665 8.36821 2.96498 8.66669 3.33317 8.66669H7.33317V12.6667C7.33317 13.0349 7.63165 13.3334 7.99984 13.3334C8.36803 13.3334 8.6665 13.0349 8.6665 12.6667V8.66669H12.6665C13.0347 8.66669 13.3332 8.36821 13.3332 8.00002C13.3332 7.63183 13.0347 7.33335 12.6665 7.33335H8.6665V3.33335Z" fill="#B4BDC3"/>
</svg>
