<svg width="16" height="16" viewBox="0 0 16 16" fill="none" xmlns="http://www.w3.org/2000/svg">
<g clip-path="url(#clip0_372_1458)">
<rect width="16" height="16" fill="white"/>
<rect width="16" height="16" fill="white"/>
<g filter="url(#filter0_d_372_1458)">
<path fill-rule="evenodd" clip-rule="evenodd" d="M7.59087 0.807058C7.83161 0.619815 8.16872 0.619815 8.40946 0.807058L14.4095 5.47372C14.5718 5.60003 14.6668 5.79423 14.6668 5.99996V13.3333C14.6668 13.8637 14.4561 14.3724 14.081 14.7475C13.706 15.1226 13.1973 15.3333 12.6668 15.3333H3.3335C2.80306 15.3333 2.29436 15.1226 1.91928 14.7475C1.54421 14.3724 1.3335 13.8637 1.3335 13.3333V5.99996C1.3335 5.79423 1.42848 5.60003 1.59087 5.47372L7.59087 0.807058ZM2.66683 6.32602V13.3333C2.66683 13.5101 2.73707 13.6797 2.86209 13.8047C2.98712 13.9297 3.15669 14 3.3335 14H12.6668C12.8436 14 13.0132 13.9297 13.1382 13.8047C13.2633 13.6797 13.3335 13.5101 13.3335 13.3333V6.32602L8.00016 2.17787L2.66683 6.32602Z" fill="#313237"/>
</g>
<g filter="url(#filter1_d_372_1458)">
<path fill-rule="evenodd" clip-rule="evenodd" d="M5.3335 8.00004C5.3335 7.63185 5.63197 7.33337 6.00016 7.33337H10.0002C10.3684 7.33337 10.6668 7.63185 10.6668 8.00004V14.6667C10.6668 15.0349 10.3684 15.3334 10.0002 15.3334C9.63197 15.3334 9.3335 15.0349 9.3335 14.6667V8.66671H6.66683V14.6667C6.66683 15.0349 6.36835 15.3334 6.00016 15.3334C5.63197 15.3334 5.3335 15.0349 5.3335 14.6667V8.00004Z" fill="#313237"/>
</g>
</g>
<defs>
<filter id="filter0_d_372_1458" x="-5.6665" y="-4.33337" width="27.3335" height="28.6666" filterUnits="userSpaceOnUse" color-interpolation-filters="sRGB">
<feFlood flood-opacity="0" result="BackgroundImageFix"/>
<feColorMatrix in="SourceAlpha" type="matrix" values="0 0 0 0 0 0 0 0 0 0 0 0 0 0 0 0 0 0 127 0" result="hardAlpha"/>
<feOffset dy="2"/>
<feGaussianBlur stdDeviation="3.5"/>
<feComposite in2="hardAlpha" operator="out"/>
<feColorMatrix type="matrix" values="0 0 0 0 0 0 0 0 0 0 0 0 0 0 0 0 0 0 0.25 0"/>
<feBlend mode="normal" in2="BackgroundImageFix" result="effect1_dropShadow_372_1458"/>
<feBlend mode="normal" in="SourceGraphic" in2="effect1_dropShadow_372_1458" result="shape"/>
</filter>
<filter id="filter1_d_372_1458" x="-1.6665" y="2.33337" width="19.3335" height="22" filterUnits="userSpaceOnUse" color-interpolation-filters="sRGB">
<feFlood flood-opacity="0" result="BackgroundImageFix"/>
<feColorMatrix in="SourceAlpha" type="matrix" values="0 0 0 0 0 0 0 0 0 0 0 0 0 0 0 0 0 0 127 0" result="hardAlpha"/>
<feOffset dy="2"/>
<feGaussianBlur stdDeviation="3.5"/>
<feComposite in2="hardAlpha" operator="out"/>
<feColorMatrix type="matrix" values="0 0 0 0 0 0 0 0 0 0 0 0 0 0 0 0 0 0 0.25 0"/>
<feBlend mode="normal" in2="BackgroundImageFix" result="effect1_dropShadow_372_1458"/>
<feBlend mode="normal" in="SourceGraphic" in2="effect1_dropShadow_372_1458" result="shape"/>
</filter>
<clipPath id="clip0_372_1458">
<rect width="16" height="16" fill="white"/>
</clipPath>
</defs>
</svg>
