<svg width="16" height="16" viewBox="0 0 16 16" fill="none" xmlns="http://www.w3.org/2000/svg">
<path fill-rule="evenodd" clip-rule="evenodd" d="M2.66683 7.33337C2.66683 4.75605 4.75617 2.66671 7.3335 2.66671C9.91083 2.66671 12.0002 4.75605 12.0002 7.33337C12.0002 8.59064 11.503 9.73179 10.6945 10.5709C10.6716 10.5885 10.6497 10.6077 10.6287 10.6286C10.6078 10.6496 10.5886 10.6715 10.571 10.6944C9.73189 11.5029 8.59075 12 7.3335 12C4.75617 12 2.66683 9.9107 2.66683 7.33337ZM11.0786 12.0213C10.0522 12.8424 8.75016 13.3334 7.3335 13.3334C4.01979 13.3334 1.3335 10.6471 1.3335 7.33337C1.3335 4.01967 4.01979 1.33337 7.3335 1.33337C10.6472 1.33337 13.3335 4.01967 13.3335 7.33337C13.3335 8.75006 12.8425 10.0521 12.0214 11.0785L14.4715 13.5286C14.7319 13.789 14.7319 14.2111 14.4715 14.4715C14.2112 14.7318 13.7891 14.7318 13.5287 14.4715L11.0786 12.0213Z" fill="#333333"/>
</svg>
